# xmcd
#
# Track frame offsets: 
#        150
#        16837
#        27318
#        44820
#        62071
#        77917
#        92163
#        107972
#        119958
#        134411
#        151074
#        167227
#
# Disc length: 2424 seconds
#
# Revision: 0
# Processed by: cddbd v1.5.2PL0 Copyright (c) Steve Scherf et al.
# Submitted via: ExactAudioCopy v0.99pb3
#
DISCID=a809760c
DTITLE=Winchester Band Featuring Donnie "Drop" Watson - Winchester Ban
DTITLE=d
DYEAR=1900
DGENRE=Country
TTITLE0=Dreams Of A Dreamer
TTITLE1=Eyes Big As Dallas
TTITLE2=Walk Softly
TTITLE3=Marionette
TTITLE4=Lovin' On Back Street
TTITLE5=Time Changes Everything
TTITLE6=Rollin' With The Flow
TTITLE7=I Got Mexico
TTITLE8=I Can't Get Over You To Save My Life
TTITLE9=Warmth Of The Wine
TTITLE10=I Wonder Where You Are Tonight
TTITLE11=Farewell Party (Instrumental)
EXTD=
EXTT0=
EXTT1=
EXTT2=
EXTT3=
EXTT4=
EXTT5=
EXTT6=
EXTT7=
EXTT8=
EXTT9=
EXTT10=
EXTT11=
PLAYORDER=
